<svg version="1.1" xmlns="http://www.w3.org/2000/svg" width="1024" height="1024">
<path d="M0 0 C337.92 0 675.84 0 1024 0 C1024 337.92 1024 675.84 1024 1024 C686.08 1024 348.16 1024 0 1024 C0 686.08 0 348.16 0 0 Z " fill="#FCFCFC" transform="translate(0,0)"/>
<path d="M0 0 C0.653 -0.007 1.305 -0.014 1.978 -0.021 C4.134 -0.039 6.289 -0.027 8.446 -0.014 C9.956 -0.016 11.466 -0.02 12.976 -0.025 C16.146 -0.031 19.316 -0.023 22.486 -0.004 C26.514 0.019 30.54 0.006 34.568 -0.018 C37.692 -0.033 40.816 -0.028 43.94 -0.018 C45.422 -0.015 46.905 -0.018 48.387 -0.028 C63.812 -0.104 77.231 3.033 88.821 13.736 C103.814 29.524 112.429 51.546 119.207 71.936 C120.52 75.82 122.027 79.581 123.656 83.342 C124.418 85.518 124.418 85.518 125.418 91.518 C269.463 91.023 269.463 91.023 416.418 90.518 C414.108 89.198 411.798 87.878 409.418 86.518 C407.676 84.701 407.676 84.701 406.543 82.955 C406.154 82.376 405.765 81.798 405.364 81.201 C402.341 75.818 402.692 69.475 403.418 63.518 C406.118 57.251 411.449 53.483 417.418 50.518 C427.371 47.2 441.327 48.435 450.75 52.643 C451.301 52.931 451.851 53.22 452.418 53.518 C451.623 50.736 450.767 48.083 449.418 45.518 C446.866 44.313 446.866 44.313 444.418 43.518 C443.606 40.893 443.606 40.893 443.418 38.518 C445.068 38.848 446.718 39.178 448.418 39.518 C448.661 38.914 448.903 38.311 449.153 37.689 C452.772 29.059 452.772 29.059 456.418 26.518 C459.168 26.268 459.168 26.268 461.418 26.518 C461.748 28.168 462.078 29.818 462.418 31.518 C460.108 32.178 457.798 32.838 455.418 33.518 C454.111 41.164 453.876 46.209 458.289 52.775 C459.418 54.518 459.418 54.518 459.418 56.518 C460.078 56.518 460.738 56.518 461.418 56.518 C461.36 55.681 461.302 54.844 461.242 53.982 C460.666 39.118 465.449 24.249 475.621 13.104 C482.266 6.888 488.368 3.808 497.574 4.111 C504.286 5.07 509.62 8.04 513.856 13.33 C518.48 20.339 520.664 27.084 519.418 35.518 C516.735 45.426 512.538 53.729 503.481 59.018 C502.47 59.513 501.459 60.008 500.418 60.518 C500.912 61.121 501.406 61.724 501.914 62.346 C502.555 63.145 503.196 63.944 503.856 64.768 C504.494 65.556 505.132 66.345 505.789 67.158 C508.282 70.769 508.6 73.944 508.731 78.268 C508.768 79.067 508.805 79.866 508.844 80.689 C508.235 84.734 506.379 87.964 504.418 91.518 C505.531 91.494 505.531 91.494 506.666 91.47 C510.021 91.408 513.375 91.369 516.731 91.33 C517.898 91.305 519.065 91.28 520.268 91.254 C521.386 91.244 522.504 91.235 523.656 91.225 C524.688 91.209 525.72 91.193 526.783 91.177 C529.418 91.518 529.418 91.518 531.251 92.852 C533.098 95.487 532.864 97.395 532.418 100.518 C530.543 102.893 530.543 102.893 528.418 104.518 C527.758 104.518 527.098 104.518 526.418 104.518 C526.306 105.177 526.195 105.836 526.08 106.515 C524.863 113.47 523.34 120.299 521.606 127.143 C521.342 128.191 521.079 129.239 520.807 130.319 C519.103 137.025 517.251 143.667 515.243 150.288 C513.635 155.639 512.25 161.029 510.918 166.455 C508.194 177.546 505.149 188.531 501.981 199.502 C501.48 201.236 500.98 202.971 500.481 204.705 C500.231 205.572 499.981 206.439 499.724 207.332 C497.525 215.019 495.52 222.75 493.528 230.493 C492.005 236.376 490.327 242.174 488.477 247.963 C487.005 252.904 485.757 257.898 484.481 262.893 C482.727 269.679 480.968 276.457 478.856 283.143 C478.504 284.269 478.152 285.396 477.789 286.557 C475.223 292.098 471.159 295.086 465.806 297.678 C461.264 299.275 456.668 299.051 451.902 298.999 C450.76 299.002 449.618 299.005 448.441 299.009 C444.624 299.016 440.808 298.994 436.99 298.972 C434.25 298.968 431.51 298.971 428.77 298.973 C422.876 298.976 416.982 298.963 411.088 298.94 C402.566 298.908 394.044 298.898 385.522 298.893 C371.695 298.884 357.868 298.857 344.04 298.819 C330.611 298.783 317.182 298.754 303.753 298.737 C302.925 298.736 302.097 298.735 301.243 298.734 C297.088 298.729 292.932 298.724 288.777 298.719 C254.324 298.677 219.871 298.607 185.418 298.518 C185.431 299.609 185.444 300.7 185.458 301.825 C185.324 314.246 177.804 326.01 172.052 336.597 C166.591 346.716 163.897 354.461 163.981 366.018 C163.961 366.999 163.941 367.98 163.92 368.99 C163.925 376.675 165.577 382.228 169.805 388.611 C174.022 391.688 178.39 391.04 183.475 390.972 C185.187 390.973 185.187 390.973 186.933 390.973 C190.772 390.971 194.61 390.939 198.448 390.908 C201.195 390.898 203.941 390.894 206.687 390.891 C212.609 390.879 218.53 390.853 224.451 390.818 C233.022 390.768 241.592 390.744 250.162 390.727 C264.078 390.698 277.994 390.655 291.909 390.6 C292.742 390.596 293.575 390.593 294.434 390.59 C301.191 390.563 307.947 390.535 314.704 390.507 C320.605 390.483 326.505 390.459 332.406 390.436 C333.236 390.432 334.067 390.429 334.923 390.426 C348.782 390.371 362.64 390.332 376.499 390.304 C385.046 390.286 393.592 390.254 402.139 390.203 C407.998 390.17 413.857 390.15 419.716 390.142 C423.095 390.136 426.474 390.122 429.853 390.095 C433.52 390.066 437.186 390.062 440.853 390.063 C441.917 390.049 442.98 390.035 444.076 390.02 C451.562 390.062 457.008 391.476 462.66 396.518 C463.199 397.178 463.738 397.838 464.293 398.518 C464.848 399.178 465.402 399.838 465.973 400.518 C470.135 406.277 470.126 411.551 469.418 418.518 C467.29 426.188 461.804 430.601 455.106 434.393 C448.874 436.294 443.113 436.618 437.106 433.83 C431.428 430.591 426.505 425.777 424.418 419.518 C424.298 417.395 424.243 415.268 424.231 413.143 C424.217 412.021 424.202 410.9 424.188 409.744 C424.418 406.518 424.418 406.518 426.418 401.518 C353.488 401.518 280.558 401.518 205.418 401.518 C206.078 403.168 206.738 404.818 207.418 406.518 C208.288 413.668 208.332 419.962 203.903 425.873 C198.562 431.79 192.68 435.552 184.543 436.018 C178.085 435.792 173.219 433.204 168.594 428.768 C163.042 422.53 162.045 418.099 162.149 409.736 C162.488 405.684 163.451 403.042 165.418 399.518 C164.82 399.256 164.222 398.994 163.606 398.725 C157.957 395.608 155.153 389.57 153.043 383.705 C147.64 364.134 153.302 346.88 162.375 329.538 C164.083 326.23 165.699 322.881 167.293 319.518 C167.848 318.363 168.402 317.208 168.973 316.018 C176.972 296.647 170.748 278.452 164.418 259.518 C164.158 258.732 163.897 257.946 163.629 257.136 C162.618 254.09 161.592 251.05 160.555 248.014 C159.025 243.308 157.732 238.549 156.433 233.776 C152.948 221.043 149.113 208.389 144.856 195.893 C142.891 190.107 141.188 184.277 139.543 178.393 C137.254 170.212 134.688 162.162 131.956 154.119 C129.899 148.039 128.031 141.928 126.262 135.759 C124.555 129.857 122.616 124.047 120.642 118.23 C119 113.357 117.51 108.463 116.106 103.518 C111.108 86.27 105.099 69.48 97.793 53.08 C97.004 51.296 97.004 51.296 96.199 49.476 C90.217 36.316 82.929 22.025 68.728 16.464 C65.034 15.408 61.924 15.259 58.083 15.246 C57.375 15.241 56.667 15.236 55.938 15.23 C54.411 15.22 52.883 15.214 51.356 15.213 C48.939 15.209 46.523 15.192 44.106 15.172 C37.239 15.117 30.371 15.086 23.504 15.061 C19.295 15.045 15.087 15.015 10.878 14.977 C9.276 14.965 7.674 14.959 6.071 14.959 C3.835 14.959 1.6 14.94 -0.635 14.918 C-1.907 14.913 -3.179 14.908 -4.49 14.903 C-7.582 14.518 -7.582 14.518 -9.489 13.207 C-11.37 10.299 -10.993 7.863 -10.582 4.518 C-7.489 0.326 -5.072 0.014 0 0 Z " fill="#333233" transform="translate(225.581787109375,391.482421875)"/>
<path d="M0 0 C21.12 0 42.24 0 64 0 C66 13 66 13 66.938 19.5 C67.582 23.732 68.409 27.845 69.438 32 C71.498 41.229 72.663 50.639 74 60 C55.52 60 37.04 60 18 60 C16.026 55.395 14.504 51.595 13.25 46.875 C11.525 40.658 9.561 34.551 7.5 28.438 C3.205 15.651 3.205 15.651 1.562 10.5 C1.254 9.541 0.946 8.582 0.629 7.594 C0 5 0 5 0 0 Z " fill="#FCFCFC" transform="translate(356,495)"/>
<path d="M0 0 C17.82 0 35.64 0 54 0 C55.056 5.278 55.398 10.362 55.719 15.723 C55.894 18.796 55.894 18.796 56.484 20.915 C57.482 24.95 57.682 29.119 58.062 33.25 C58.153 34.147 58.244 35.044 58.338 35.969 C59.122 44.412 59 52.403 59 61 C42.83 61 26.66 61 10 61 C7.625 47.125 7.625 47.125 6.889 42.813 C5.693 35.852 4.424 28.917 3 22 C2.448 19.252 1.908 16.502 1.375 13.75 C1.174 12.748 1.174 12.748 0.969 11.727 C0.185 7.646 0 4.231 0 0 Z " fill="#FCFCFC" transform="translate(428,494)"/>
<path d="M0 0 C17.49 0 34.98 0 53 0 C53 24.139 53 24.139 52.781 31.582 C52.762 32.328 52.742 33.073 52.722 33.841 C52.651 36.498 52.575 39.155 52.5 41.812 C52.335 47.814 52.17 53.816 52 60 C36.49 60 20.98 60 5 60 C1.534 34.583 1.534 34.583 0.812 22.688 C0.731 21.479 0.649 20.271 0.564 19.025 C0.15 12.643 0 6.417 0 0 Z " fill="#FCFCFC" transform="translate(491,495)"/>
<path d="M0 0 C17.82 0 35.64 0 54 0 C56.065 4.129 56.891 7.903 57.691 12.387 C57.842 13.203 57.992 14.02 58.146 14.861 C58.463 16.588 58.776 18.315 59.087 20.043 C59.558 22.662 60.039 25.279 60.521 27.896 C60.829 29.581 61.135 31.265 61.441 32.949 C61.654 34.108 61.654 34.108 61.871 35.289 C62.666 39.738 63.289 44.169 63.738 48.666 C64.088 51.786 64.556 54.892 65 58 C49.16 58 33.32 58 17 58 C14.056 49.757 11.229 41.771 8.938 33.375 C7.114 26.821 5.216 20.348 2.859 13.961 C1.535 9.399 0.85 4.674 0 0 Z " fill="#FCFCFC" transform="translate(377,563)"/>
<path d="M0 0 C0.868 0.002 1.737 0.004 2.631 0.007 C3.612 0.007 4.593 0.007 5.604 0.007 C6.67 0.012 7.737 0.017 8.836 0.023 C9.922 0.024 11.008 0.025 12.127 0.027 C15.612 0.033 19.097 0.045 22.582 0.058 C24.938 0.063 27.294 0.067 29.65 0.071 C35.44 0.082 41.23 0.099 47.02 0.12 C47.135 6.788 46.709 13.228 45.961 19.851 C45.798 21.342 45.798 21.342 45.632 22.863 C45.403 24.95 45.172 27.037 44.938 29.123 C44.582 32.308 44.233 35.494 43.885 38.681 C43.661 40.717 43.436 42.752 43.211 44.788 C43.107 45.735 43.003 46.682 42.895 47.658 C42.795 48.549 42.695 49.441 42.592 50.359 C42.505 51.136 42.419 51.913 42.33 52.713 C41.967 55.526 41.486 58.323 41.02 61.12 C26.17 61.12 11.32 61.12 -3.98 61.12 C-4.118 28.577 -4.118 28.577 -3.543 12.62 C-3.504 11.471 -3.465 10.321 -3.424 9.137 C-3.382 8.09 -3.34 7.043 -3.297 5.964 C-3.26 5.048 -3.224 4.132 -3.186 3.189 C-2.915 0.46 -2.744 0.167 0 0 Z " fill="#FCFCFC" transform="translate(554.9804840087891,493.87974548339844)"/>
<path d="M0 0 C16.17 0 32.34 0 49 0 C49.681 7.301 49.681 7.301 50.375 14.75 C51.346 25.166 52.323 35.581 53.441 45.983 C53.864 50.046 54 53.892 54 58 C39.48 58 24.96 58 10 58 C9.092 52.596 8.185 47.192 7.25 41.625 C4.571 25.768 4.571 25.768 1.118 10.065 C0.25 6.489 0 3.771 0 0 Z " fill="#FCFCFC" transform="translate(440,563)"/>
<path d="M0 0 C14.52 0 29.04 0 44 0 C43.351 8.434 42.584 16.487 41.152 24.77 C40.976 25.817 40.8 26.864 40.619 27.942 C40.064 31.233 39.501 34.523 38.938 37.812 C38.556 40.066 38.175 42.319 37.795 44.572 C36.87 50.049 35.935 55.525 35 61 C21.47 61 7.94 61 -6 61 C-4.313 40.599 -2.467 20.32 0 0 Z " fill="#FCFCFC" transform="translate(610,494)"/>
<path d="M0 0 C14.52 0 29.04 0 44 0 C44 10.029 44 10.029 43.133 14.887 C42.24 20.296 41.532 25.697 40.93 31.145 C40.813 32.198 40.813 32.198 40.694 33.272 C40.419 35.785 40.147 38.299 39.875 40.812 C39.256 46.484 38.638 52.156 38 58 C25.13 58 12.26 58 -1 58 C-1.021 51.586 -1.041 45.171 -1.062 38.562 C-1.072 36.577 -1.081 34.591 -1.09 32.545 C-1.093 30.906 -1.096 29.268 -1.098 27.629 C-1.103 26.831 -1.108 26.032 -1.113 25.21 C-1.114 16.749 -0.5 8.501 0 0 Z " fill="#FCFCFC" transform="translate(551,563)"/>
<path d="M0 0 C14.85 0 29.7 0 45 0 C45 18.81 45 37.62 45 57 C31.8 57 18.6 57 5 57 C3.191 38.006 1.472 19.024 0 0 Z " fill="#FCFCFC" transform="translate(497,564)"/>
<path d="M0 0 C13.2 0 26.4 0 40 0 C38.918 12.987 38.918 12.987 37.535 17.953 C36.409 22.261 35.752 26.676 35 31.062 C34.835 31.998 34.67 32.933 34.5 33.896 C33.111 41.919 32.078 49.912 31 58 C18.79 58 6.58 58 -6 58 C-5.125 48.875 -5.125 48.875 -4.829 45.786 C-4.366 40.937 -3.916 36.087 -3.492 31.234 C-3.41 30.295 -3.327 29.355 -3.242 28.387 C-3.087 26.618 -2.935 24.848 -2.786 23.078 C-2.105 15.329 -1.032 7.74 0 0 Z " fill="#FCFCFC" transform="translate(603,563)"/>
<path d="M0 0 C15.51 0 31.02 0 47 0 C47.949 5.033 48.897 10.065 49.875 15.25 C50.17 16.811 50.465 18.373 50.769 19.981 C51.939 26.206 53.101 32.433 54.195 38.672 C54.353 39.565 54.51 40.458 54.672 41.378 C55 44 55 44 55 50 C41.47 50 27.94 50 14 50 C13.134 46.906 12.267 43.812 11.375 40.625 C9.157 32.763 6.769 24.992 4.005 17.303 C1.964 11.455 1.15 6.323 0 0 Z " fill="#FCFCFC" transform="translate(397,629)"/>
<path d="M0 0 C0.99 0.33 1.98 0.66 3 1 C0.225 22.294 -5.719 43.234 -11 64 C-22.88 64 -34.76 64 -47 64 C-46.361 56.33 -45.888 51.023 -44 44 C-43.432 40.919 -42.979 37.823 -42.527 34.723 C-42.399 33.871 -42.271 33.019 -42.14 32.141 C-41.597 28.528 -41.063 24.913 -40.529 21.299 C-40.136 18.648 -39.738 15.998 -39.34 13.348 C-39.22 12.525 -39.1 11.702 -38.977 10.854 C-38.113 5.113 -38.113 5.113 -37 4 C-32.493 3.459 -29.856 3.776 -26.25 6.438 C-25.422 7.116 -25.422 7.116 -24.578 7.809 C-20.87 10.608 -16.434 10.561 -12 10 C-6.079 8.126 -2.945 5.399 0 0 Z " fill="#FCFCFC" transform="translate(700,491)"/>
<path d="M0 0 C14.19 0 28.38 0 43 0 C43.66 6.023 44.32 12.045 45 18.25 C45.209 20.125 45.418 21.999 45.633 23.931 C45.797 25.459 45.961 26.987 46.125 28.516 C46.211 29.275 46.298 30.034 46.387 30.816 C47.072 37.314 47 43.354 47 50 C34.46 50 21.92 50 9 50 C8.423 46.947 7.845 43.895 7.25 40.75 C6.158 34.983 5.053 29.22 3.879 23.469 C3.611 22.152 3.611 22.152 3.337 20.81 C2.997 19.152 2.654 17.495 2.308 15.839 C2.151 15.072 1.994 14.306 1.832 13.516 C1.695 12.859 1.558 12.201 1.417 11.524 C0.786 7.706 0.427 3.847 0 0 Z " fill="#FCFCFC" transform="translate(452,629)"/>
<path d="M0 0 C1.476 0 2.952 0.006 4.427 0.016 C5.203 0.017 5.978 0.019 6.777 0.02 C9.264 0.026 11.75 0.038 14.236 0.051 C15.918 0.056 17.599 0.061 19.281 0.065 C23.412 0.076 27.543 0.093 31.674 0.114 C29.668 11.431 27.269 22.626 24.657 33.818 C24.039 36.467 23.426 39.117 22.814 41.768 C22.421 43.463 22.028 45.157 21.635 46.852 C21.452 47.639 21.27 48.427 21.082 49.238 C20.379 52.244 19.651 55.183 18.674 58.114 C7.784 58.114 -3.106 58.114 -14.326 58.114 C-12.244 43.536 -12.244 43.536 -10.326 36.114 C-9.752 32.79 -9.287 29.454 -8.826 26.114 C-7.982 19.986 -6.883 14.101 -5.326 8.114 C-5.141 6.814 -4.955 5.515 -4.764 4.176 C-4.188 0.143 -4.188 0.143 0 0 Z " fill="#FCFCFC" transform="translate(655.326416015625,562.886474609375)"/>
<path d="M0 0 C10.56 0 21.12 0 32 0 C31.074 7.41 29.634 14.331 27.875 21.562 C27.569 22.829 27.263 24.096 26.947 25.401 C24.088 37.084 20.626 48.532 17 60 C7.1 60 -2.8 60 -13 60 C-11.876 48.76 -11.876 48.76 -10.512 43.348 C-10.073 41.577 -10.073 41.577 -9.625 39.771 C-9.316 38.547 -9.006 37.323 -8.688 36.062 C-6.332 26.559 -4.073 17.061 -2.155 7.459 C-1.093 2.186 -1.093 2.186 0 0 Z " fill="#FCFCFC" transform="translate(711,495)"/>
<path d="M0 0 C12.87 0 25.74 0 39 0 C37.44 16.679 35.737 33.339 34 50 C22.78 50 11.56 50 0 50 C0 33.5 0 17 0 0 Z " fill="#FCFCFC" transform="translate(549,629)"/>
<path d="M0 0 C5.362 3.136 8.998 6.962 12.133 12.336 C14.187 20.554 12.801 27.696 8.82 35.086 C3.932 42.937 -4.427 46.803 -13.18 49.086 C-24.759 50.984 -24.759 50.984 -30.18 50.086 C-32.094 48.519 -33.072 47.301 -34.18 45.086 C-35.271 32.199 -32.53 18.646 -24.066 8.57 C-17.396 1.619 -9.892 -4.148 0 0 Z " fill="#2FBDEB" transform="translate(726.1796875,403.9140625)"/>
<path d="M0 0 C12.21 0 24.42 0 37 0 C37 16.5 37 33 37 50 C31.576 50.021 26.151 50.041 20.562 50.062 C18.849 50.072 17.135 50.081 15.369 50.09 C14.018 50.093 12.667 50.096 11.316 50.098 C10.255 50.105 10.255 50.105 9.173 50.113 C7.448 50.113 5.724 50.062 4 50 C2.217 48.217 2.659 45.557 2.5 43.137 C2.418 41.94 2.335 40.743 2.25 39.51 C2.168 38.248 2.085 36.987 2 35.688 C1.837 33.212 1.67 30.737 1.5 28.262 C1.428 27.158 1.356 26.054 1.281 24.917 C1.052 21.79 1.052 21.79 0 18 C0 12.06 0 6.12 0 0 Z " fill="#FCFCFC" transform="translate(504,629)"/>
<path d="M0 0 C11.55 0 23.1 0 35 0 C35 10.061 35 10.061 33.668 15.137 C31.89 22.313 30.579 29.531 29.312 36.812 C28.549 41.164 27.786 45.516 27 50 C16.44 50 5.88 50 -5 50 C-5 43.335 -4.98 37.189 -4.16 30.664 C-4.074 29.937 -3.987 29.21 -3.898 28.46 C-3.717 26.946 -3.533 25.432 -3.346 23.918 C-3.061 21.609 -2.784 19.299 -2.51 16.988 C-2.331 15.505 -2.152 14.022 -1.973 12.539 C-1.89 11.856 -1.808 11.172 -1.723 10.468 C-1.284 6.928 -0.701 3.506 0 0 Z " fill="#FCFCFC" transform="translate(596,629)"/>
<path d="M0 0 C1.21 0.005 2.419 0.01 3.666 0.016 C4.971 0.019 6.276 0.022 7.621 0.026 C9.01 0.034 10.398 0.042 11.787 0.051 C13.179 0.056 14.572 0.061 15.965 0.065 C19.385 0.077 22.804 0.093 26.224 0.114 C25.049 6.906 23.729 13.618 22.037 20.301 C21.828 21.131 21.62 21.961 21.405 22.816 C18.379 34.66 15.091 46.515 11.224 58.114 C2.314 58.114 -6.596 58.114 -15.776 58.114 C-15.128 52.931 -14.444 48.217 -13.287 43.184 C-12.995 41.901 -12.702 40.619 -12.401 39.298 C-12.089 37.945 -11.776 36.592 -11.463 35.239 C-10.986 33.157 -10.51 31.075 -10.034 28.993 C-9.72 27.621 -9.405 26.249 -9.09 24.876 C-8.192 20.96 -7.314 17.04 -6.459 13.114 C-6.276 12.272 -6.093 11.43 -5.904 10.562 C-5.577 9.051 -5.252 7.54 -4.931 6.028 C-3.652 0.149 -3.652 0.149 0 0 Z " fill="#FCFCFC" transform="translate(698.775634765625,562.886474609375)"/>
<path d="M0 0 C10.56 0 21.12 0 32 0 C28.737 16.795 25.083 33.385 21 50 C11.1 50 1.2 50 -9 50 C-7.876 38.764 -7.876 38.764 -6.914 34.59 C-6.707 33.67 -6.499 32.751 -6.286 31.803 C-6.068 30.857 -5.85 29.912 -5.625 28.938 C-3.466 19.324 -1.634 9.716 0 0 Z " fill="#FCFCFC" transform="translate(640,629)"/>
<path d="M0 0 C8.91 0 17.82 0 27 0 C25.682 7.907 23.7 15.574 21.664 23.323 C21.18 25.191 20.708 27.063 20.248 28.938 C19.58 31.658 18.871 34.364 18.152 37.07 C17.956 37.906 17.76 38.741 17.558 39.602 C16.636 42.93 15.955 45.249 13.186 47.427 C9.644 49.304 6.335 50.51 2.281 50.391 C1.495 50.378 0.709 50.365 -0.102 50.352 C-0.893 50.318 -1.685 50.285 -2.5 50.25 C-3.322 50.232 -4.145 50.214 -4.992 50.195 C-6.995 50.149 -8.998 50.077 -11 50 C-10.319 42.588 -8.487 35.569 -6.625 28.375 C-4.199 18.949 -1.989 9.528 0 0 Z " fill="#FCFCFC" transform="translate(680,629)"/>
<path d="M0 0 C2.863 2.141 2.863 2.141 5 4 C3.877 7.37 3.087 7.932 0.375 10.062 C-2.919 12.827 -5.255 15.601 -7.625 19.188 C-11.07 24.362 -14.022 27.007 -20 29 C-26.498 29.782 -31.637 28.833 -37 25 C-40.614 21.485 -42.85 18.448 -43.375 13.375 C-43.272 8.237 -41.403 4.782 -38 1 C-28.107 -7.999 -11.149 -5.095 0 0 Z " fill="#F49A0B" transform="translate(678,451)"/>
<path d="M0 0 C5.535 1.864 7.999 7.34 11 12 C11.639 12.969 12.279 13.939 12.938 14.938 C14.877 20.528 14.998 26.478 12.812 32 C9.511 35.643 7.071 36.824 2.188 37.625 C-2.502 37.456 -5.12 35.045 -8.367 31.855 C-12.064 27.654 -12.404 23.69 -12.242 18.262 C-11.468 11.032 -6.986 5.926 -2 1 C-1.34 0.67 -0.68 0.34 0 0 Z " fill="#5274DF" transform="translate(683,459)"/>
<path d="M0 0 C3.927 3.624 5.73 6.294 6.25 11.75 C6.027 16.906 4.179 20.31 0.812 24.188 C-3.51 26.579 -7.298 26.673 -12.125 25.812 C-17.609 22.766 -19.061 19.237 -21.113 13.453 C-22.453 9.957 -24.266 6.839 -26.172 3.625 C-27.125 1.812 -27.125 1.812 -27.125 -0.188 C-24.063 -0.525 -21 -0.857 -17.938 -1.188 C-16.641 -1.331 -16.641 -1.331 -15.318 -1.477 C-3.865 -2.705 -3.865 -2.705 0 0 Z " fill="#5274DF" transform="translate(724.125,457.1875)"/>
<path d="M0 0 C3.356 1.119 5.14 2.767 7.227 5.586 C9.145 9.604 9.125 13.439 8.262 17.754 C6.219 21.256 4.164 23.528 0.262 24.754 C-4.773 25.212 -7.634 24.739 -11.738 21.754 C-11.738 25.054 -11.738 28.354 -11.738 31.754 C-13.058 31.754 -14.378 31.754 -15.738 31.754 C-15.738 21.524 -15.738 11.294 -15.738 0.754 C-14.418 0.754 -13.098 0.754 -11.738 0.754 C-11.408 1.414 -11.078 2.074 -10.738 2.754 C-10.027 1.98 -10.027 1.98 -9.301 1.191 C-5.947 -0.69 -3.748 -0.589 0 0 Z " fill="#333233" transform="translate(635.73828125,923.24609375)"/>
<path d="M0 0 C3.438 2.121 5.776 4.104 7 8 C7.474 12.262 7.298 14.446 5.25 18.25 C0.799 23.69 0.799 23.69 -3.043 24.352 C-7.307 24.623 -10.13 24.377 -13.5 21.625 C-17.527 17.396 -17.337 14.377 -17.285 8.703 C-16.9 5.055 -15.76 3.377 -13 1 C-8.602 -1.665 -4.87 -1.209 0 0 Z " fill="#333233" transform="translate(320,924)"/>
<path d="M0 0 C2.438 1.5 2.438 1.5 4 3 C4 2.34 4 1.68 4 1 C4.99 1 5.98 1 7 1 C7 8.92 7 16.84 7 25 C5.68 25 4.36 25 3 25 C2.67 24.34 2.34 23.68 2 23 C1.484 23.33 0.969 23.66 0.438 24 C-2.926 25.38 -5.392 25.38 -9 25 C-12.784 22.943 -13.78 21.671 -15.125 17.562 C-15 14 -15 14 -13.188 11.062 C-8.81 8.23 -5.088 8.37 0 9 C0.66 9.33 1.32 9.66 2 10 C0.935 7.391 0.935 7.391 -1 5 C-5.411 4.314 -8.881 5.431 -13 7 C-11.558 2.434 -11.558 2.434 -9.312 0.688 C-6.062 -0.279 -3.373 -0.301 0 0 Z " fill="#333233" transform="translate(432,923)"/>
<path d="M0 0 C3.321 2.08 6.232 4.464 8 8 C8 9.98 8 11.96 8 14 C1.73 14 -4.54 14 -11 14 C-9.231 17.181 -9.231 17.181 -7 20 C-1.673 20.339 -1.673 20.339 3 18 C4.32 18 5.64 18 7 18 C6.004 20.625 5.06 21.95 2.875 23.75 C-0.823 25.358 -4.073 25.83 -8 25 C-11.671 22.967 -14.798 20.087 -16 16 C-16.474 11.738 -16.298 9.554 -14.25 5.75 C-10.168 0.761 -6.681 -1.577 0 0 Z " fill="#3D3B3E" transform="translate(569,923)"/>
<path d="M0 0 C2.939 0.619 5.019 1.224 7.562 2.75 C7.934 2.255 8.305 1.76 8.688 1.25 C10.562 -0.25 10.562 -0.25 13.375 -0.75 C17.469 -0.108 20.134 1.426 22.562 4.75 C23.29 8.053 23.133 11.2 22.938 14.562 C22.897 15.888 22.897 15.888 22.855 17.24 C22.785 19.411 22.677 21.581 22.562 23.75 C21.242 23.75 19.923 23.75 18.562 23.75 C18.514 22.546 18.465 21.342 18.414 20.102 C18.339 18.526 18.263 16.95 18.188 15.375 C18.157 14.581 18.126 13.787 18.094 12.969 C18.044 8.383 18.044 8.383 15.562 4.75 C12.265 5.08 10.94 5.373 8.562 7.75 C8.256 10.484 8.051 13.133 7.938 15.875 C7.899 16.629 7.86 17.383 7.82 18.16 C7.726 20.023 7.643 21.886 7.562 23.75 C6.242 23.75 4.923 23.75 3.562 23.75 C3.514 22.546 3.465 21.342 3.414 20.102 C3.339 18.526 3.263 16.95 3.188 15.375 C3.157 14.581 3.126 13.787 3.094 12.969 C3.044 8.383 3.044 8.383 0.562 4.75 C-1.977 4.841 -1.977 4.841 -4.438 5.75 C-6.918 9.471 -6.881 12.615 -7.062 16.938 C-7.101 17.687 -7.14 18.437 -7.18 19.209 C-7.274 21.056 -7.357 22.903 -7.438 24.75 C-8.758 24.75 -10.077 24.75 -11.438 24.75 C-11.438 16.83 -11.438 8.91 -11.438 0.75 C-8.962 1.245 -8.962 1.245 -6.438 1.75 C-3.438 -0.25 -3.438 -0.25 0 0 Z " fill="#333233" transform="translate(592.4375,923.25)"/>
<path d="M0 0 C3 1.812 3 1.812 5 4 C5 4.99 5 5.98 5 7 C0.125 6.125 0.125 6.125 -1 5 C-3 4.959 -5 4.957 -7 5 C-7 6.32 -7 7.64 -7 9 C-6.397 9.11 -5.793 9.219 -5.172 9.332 C3.594 11.071 3.594 11.071 6 14 C6.5 16.938 6.5 16.938 6 20 C4.133 22.303 2.644 23.678 0 25 C-4.13 25.415 -7.792 25.589 -11.562 23.75 C-13 22 -13 22 -13 18 C-10.831 18.506 -9 19 -7 20 C-4.667 20.04 -2.333 20.043 0 20 C0.66 18.68 1.32 17.36 2 16 C1.252 15.902 0.505 15.804 -0.266 15.703 C-8.245 14.492 -8.245 14.492 -11.688 12.25 C-13.472 9.191 -13.653 7.482 -13 4 C-9.356 -0.328 -5.365 -1.092 0 0 Z " fill="#333233" transform="translate(524,923)"/>
<path d="M0 0 C1.65 0 3.3 0 5 0 C5.061 1.204 5.121 2.408 5.184 3.648 C5.268 5.224 5.353 6.799 5.438 8.375 C5.477 9.169 5.516 9.963 5.557 10.781 C5.689 15.026 5.689 15.026 7 19 C9.874 19.334 9.874 19.334 13 19 C16.07 16.161 16.401 13.397 16.619 9.316 C16.642 8.634 16.664 7.953 16.688 7.25 C16.722 6.553 16.756 5.855 16.791 5.137 C16.873 3.425 16.938 1.713 17 0 C18.32 0 19.64 0 21 0 C21 7.92 21 15.84 21 24 C19.68 24 18.36 24 17 24 C17 23.01 17 22.02 17 21 C16.319 21.495 15.639 21.99 14.938 22.5 C11.27 24.373 9.068 24.592 5 24 C1.44 20.44 0.028 18.112 -0.098 13.086 C-0.091 11.516 -0.079 9.945 -0.062 8.375 C-0.058 7.573 -0.053 6.771 -0.049 5.945 C-0.037 3.964 -0.019 1.982 0 0 Z " fill="#3D3B3E" transform="translate(331,924)"/>
<path d="M0 0 C2.23 -0.406 2.23 -0.406 5 0 C6.72 2.185 7.994 4.094 9.312 6.5 C9.672 7.12 10.031 7.74 10.4 8.379 C11.284 9.91 12.144 11.454 13 13 C16.598 9.626 18.884 6.069 21.34 1.828 C23 0 23 0 25.691 -0.266 C26.834 -0.134 26.834 -0.134 28 0 C22.366 10.706 22.366 10.706 19.188 14.312 C15.403 19.237 16.091 26.063 16 32 C14.35 32 12.7 32 11 32 C11.009 31.033 11.018 30.066 11.027 29.07 C10.81 19.526 9.233 14.485 3 7 C0 2.398 0 2.398 0 0 Z " fill="#333233" transform="translate(275,915)"/>
<path d="M0 0 C2.293 0.09 2.293 0.09 5 1 C7.533 5.138 9.124 9.507 11 14 C13.31 9.38 15.62 4.76 18 0 C19.32 0 20.64 0 22 0 C20.104 7.022 17.613 13.463 14.438 20 C14.039 20.844 13.64 21.689 13.229 22.559 C10.272 28.728 10.272 28.728 8 31 C6.68 31 5.36 31 4 31 C4.309 30.154 4.619 29.309 4.938 28.438 C6.883 22.143 7.541 18.107 4.6 12.199 C4.257 11.556 3.915 10.913 3.562 10.25 C0 3.315 0 3.315 0 0 Z " fill="#3D3B3E" transform="translate(671,924)"/>
<path d="M0 0 C1.32 0 2.64 0 4 0 C4 1.98 4 3.96 4 6 C5.98 6 7.96 6 10 6 C9.67 7.65 9.34 9.3 9 11 C7.35 11 5.7 11 4 11 C4.33 15.95 4.66 20.9 5 26 C6.65 26.33 8.3 26.66 10 27 C10 28.32 10 29.64 10 31 C3.715 31.483 3.715 31.483 0.781 29.5 C-1.704 26.012 -1.439 22.857 -1.25 18.75 C-1.232 18.005 -1.214 17.26 -1.195 16.492 C-1.148 14.661 -1.077 12.83 -1 11 C-2.32 11 -3.64 11 -5 11 C-5 9.68 -5 8.36 -5 7 C-3.68 7 -2.36 7 -1 7 C-1.021 6.031 -1.041 5.061 -1.062 4.062 C-1 1 -1 1 0 0 Z " fill="#565455" transform="translate(654,917)"/>
<path d="M0 0 C3 2 3 2 5 4 C4.67 5.32 4.34 6.64 4 8 C3.484 7.691 2.969 7.381 2.438 7.062 C-0.796 5.653 -3.471 5.126 -7 5 C-9.583 6.417 -9.583 6.417 -11 9 C-11.519 12.482 -11.155 14.58 -9.938 17.875 C-8.077 20.368 -8.077 20.368 -4.5 20.5 C-1.062 20.303 -1.062 20.303 0.938 18.5 C1.288 18.005 1.639 17.51 2 17 C2.99 17.33 3.98 17.66 5 18 C4.696 20.938 4.193 21.841 1.875 23.75 C-1.71 25.309 -4.121 25.416 -8 25 C-12.152 23.207 -14.272 21.185 -16 17 C-16.767 12.92 -16.926 9.524 -14.723 5.898 C-10.388 0.748 -6.923 -1.019 0 0 Z " fill="#333233" transform="translate(408,923)"/>
<path d="M0 0 C2.796 2.345 2.975 3.802 3.438 7.438 C2.92 11.648 2.236 13.261 -1 16 C-4.5 16.625 -4.5 16.625 -8 16 C-10.578 13.884 -11.724 12.313 -12.414 9.027 C-12.679 5.296 -12.284 3.353 -9.938 0.438 C-6.088 -1.446 -4.076 -1.208 0 0 Z " fill="#FCFCFC" transform="translate(319,928)"/>
<path d="M0 0 C2.375 1.438 2.375 1.438 4 4 C4.784 8.361 4.775 11.778 2.375 15.562 C-0.725 17.439 -2.433 17.595 -6 17 C-8.375 15.562 -8.375 15.562 -10 13 C-10.784 8.639 -10.775 5.222 -8.375 1.438 C-5.275 -0.439 -3.567 -0.595 0 0 Z " fill="#FCFCFC" transform="translate(635,927)"/>
<path d="M0 0 C1.32 0 2.64 0 4 0 C4 1.98 4 3.96 4 6 C5.98 6 7.96 6 10 6 C10 7.32 10 8.64 10 10 C8.35 10 6.7 10 5 10 C5.33 14.95 5.66 19.9 6 25 C7.65 25.33 9.3 25.66 11 26 C10.67 27.32 10.34 28.64 10 30 C7.25 30.312 7.25 30.312 4 30 C0.882 27.105 0.052 25.5 -0.391 21.23 C-0.364 19.882 -0.317 18.534 -0.25 17.188 C-0.232 16.495 -0.214 15.802 -0.195 15.088 C-0.149 13.391 -0.077 11.695 0 10 C-1.32 9.67 -2.64 9.34 -4 9 C-4 8.01 -4 7.02 -4 6 C-2.68 6 -1.36 6 0 6 C0 4.02 0 2.04 0 0 Z " fill="#4B4848" transform="translate(465,918)"/>
<path d="M0 0 C0.66 0.66 1.32 1.32 2 2 C4.662 2.463 4.662 2.463 7.625 2.625 C9.129 2.737 9.129 2.737 10.664 2.852 C11.435 2.901 12.206 2.95 13 3 C13.33 3.99 13.66 4.98 14 6 C10.04 6 6.08 6 2 6 C3.769 9.181 3.769 9.181 6 12 C11.327 12.339 11.327 12.339 16 10 C17.32 10 18.64 10 20 10 C19.004 12.625 18.06 13.95 15.875 15.75 C12.177 17.358 8.927 17.83 5 17 C1.329 14.967 -1.798 12.087 -3 8 C-3.078 5.668 -3.09 3.332 -3 1 C-2.01 0.67 -1.02 0.34 0 0 Z " fill="#333233" transform="translate(556,931)"/>
<path d="M0 0 C0 1.65 0 3.3 0 5 C-0.784 5.289 -1.567 5.577 -2.375 5.875 C-5.097 6.849 -5.097 6.849 -7 9 C-7.306 11.569 -7.511 14.048 -7.625 16.625 C-7.664 17.331 -7.702 18.038 -7.742 18.766 C-7.836 20.51 -7.919 22.255 -8 24 C-9.65 24.33 -11.3 24.66 -13 25 C-13 17.08 -13 9.16 -13 1 C-11.68 1 -10.36 1 -9 1 C-9 1.99 -9 2.98 -9 4 C-8.257 3.34 -7.515 2.68 -6.75 2 C-4 0 -4 0 0 0 Z " fill="#4B4848" transform="translate(370,923)"/>
<path d="M0 0 C1 2 1 2 0.25 4.562 C-1 7 -1 7 -4 8 C-5.394 8.067 -6.792 8.085 -8.188 8.062 C-10.075 8.032 -10.075 8.032 -12 8 C-12.043 10 -12.041 12 -12 14 C-10.837 15.385 -10.837 15.385 -7.625 15.188 C-3.903 15.305 -3.903 15.305 -1 13 C-1 14.65 -1 16.3 -1 18 C-4.659 20.341 -7.728 20.45 -12 20 C-15.784 17.943 -16.78 16.671 -18.125 12.562 C-18 9 -18 9 -16.188 6.062 C-11.81 3.23 -8.088 3.37 -3 4 C-2.34 4.33 -1.68 4.66 -1 5 C-0.67 3.35 -0.34 1.7 0 0 Z " fill="#333233" transform="translate(435,928)"/>
<path d="M0 0 C0.33 1.65 0.66 3.3 1 5 C-1.31 5.66 -3.62 6.32 -6 7 C-6.049 7.797 -6.098 8.593 -6.148 9.414 C-6.891 19.938 -6.891 19.938 -9 25 C-11 22 -11 22 -12 19 C-12.825 18.711 -13.65 18.423 -14.5 18.125 C-15.325 17.754 -16.15 17.382 -17 17 C-17.812 14.375 -17.812 14.375 -18 12 C-15.525 12.495 -15.525 12.495 -13 13 C-12.758 12.397 -12.515 11.793 -12.266 11.172 C-7.243 -0.805 -7.243 -0.805 0 0 Z " fill="#333233" transform="translate(687,418)"/>
<path d="M0 0 C0 1.65 0 3.3 0 5 C-0.949 5.289 -1.897 5.577 -2.875 5.875 C-6.052 6.768 -6.052 6.768 -8 9 C-8.306 11.569 -8.511 14.048 -8.625 16.625 C-8.664 17.331 -8.702 18.038 -8.742 18.766 C-8.836 20.51 -8.919 22.255 -9 24 C-10.32 24 -11.64 24 -13 24 C-13 16.41 -13 8.82 -13 1 C-11.68 1 -10.36 1 -9 1 C-9 1.66 -9 2.32 -9 3 C-8.443 2.505 -7.886 2.01 -7.312 1.5 C-4.618 -0.248 -3.146 -0.262 0 0 Z " fill="#333233" transform="translate(458,923)"/>
<path d="M0 0 C0 0.99 0 1.98 0 3 C0.577 3.206 1.155 3.413 1.75 3.625 C5.244 5.76 7.341 8.98 8.609 12.867 C9.068 15.369 9.096 17.708 9.062 20.25 C9.053 21.142 9.044 22.034 9.035 22.953 C9.024 23.629 9.012 24.304 9 25 C7.667 25 6.333 25 5 25 C4.963 24.336 4.925 23.672 4.887 22.988 C4.361 15.931 3.419 12.213 -1.938 7.312 C-4.291 5.536 -6.307 4.139 -9 3 C-6.39 -0.48 -4.169 -0.278 0 0 Z " fill="#333233" transform="translate(725,450)"/>
<path d="M0 0 C3.853 1.376 4.822 3.331 6.625 6.938 C7.245 11.276 6.959 13.317 4.875 17.188 C1.192 21.689 1.192 21.689 -1.375 22.938 C-4.393 23.173 -7.355 23.112 -10.375 22.938 C-9.385 22.607 -8.395 22.278 -7.375 21.938 C-7.375 20.947 -7.375 19.957 -7.375 18.938 C-6.426 18.669 -5.478 18.401 -4.5 18.125 C-1.122 17.188 -1.122 17.188 0.625 13.938 C1.068 10.587 1.349 8.093 -0.496 5.148 C-1.721 3.685 -3.042 2.303 -4.375 0.938 C-2.375 -0.062 -2.375 -0.062 0 0 Z " fill="#333233" transform="translate(320.375,925.0625)"/>
<path d="M0 0 C1.32 0 2.64 0 4 0 C4 7.92 4 15.84 4 24 C2.68 24 1.36 24 0 24 C-1.282 15.883 -0.698 8.147 0 0 Z " fill="#333233" transform="translate(348,924)"/>
<path d="M0 0 C1.32 0 2.64 0 4 0 C4 7.92 4 15.84 4 24 C2.68 24 1.36 24 0 24 C0 16.08 0 8.16 0 0 Z " fill="#333233" transform="translate(501,924)"/>
<path d="M0 0 C0.99 0.66 1.98 1.32 3 2 C2.25 6.75 2.25 6.75 0 9 C-3.5 9.25 -3.5 9.25 -7 9 C-7.66 8.34 -8.32 7.68 -9 7 C-8.75 3.938 -8.75 3.938 -8 1 C-5.229 -0.386 -3.067 -0.188 0 0 Z " fill="#F2F3F3" transform="translate(431,935)"/>
<path d="M0 0 C2.48 2.48 2.324 3.385 2.375 6.812 C2.302 10.403 2.103 11.824 0.25 15 C-4.193 18.95 -7.02 19.23 -13 19 C-12.34 18.34 -11.68 17.68 -11 17 C-11.33 16.34 -11.66 15.68 -12 15 C-9.69 14.34 -7.38 13.68 -5 13 C-4.34 10.03 -3.68 7.06 -3 4 C-2.34 4.66 -1.68 5.32 -1 6 C-0.67 4.02 -0.34 2.04 0 0 Z " fill="#3D3B3E" transform="translate(642,929)"/>
<path d="M0 0 C0.516 0.825 1.031 1.65 1.562 2.5 C3.842 5.348 3.842 5.348 7.562 5.5 C10.946 5.296 10.946 5.296 12.938 3.5 C13.288 3.005 13.639 2.51 14 2 C14.99 2.33 15.98 2.66 17 3 C16.696 5.938 16.193 6.841 13.875 8.75 C10.329 10.292 7.836 10.349 4 10 C1.562 9 1.562 9 0 8 C0 5.36 0 2.72 0 0 Z " fill="#3D3B3E" transform="translate(396,938)"/>
<path d="M0 0 C2.562 1.625 2.562 1.625 4 4 C4.463 8.402 4.48 10.279 2 14 C1.732 12.907 1.464 11.814 1.188 10.688 C0.051 6.522 0.051 6.522 -3 4 C-5.718 3.763 -8.26 3.865 -11 4 C-11 2.68 -11 1.36 -11 0 C-7.501 -1.749 -3.72 -0.839 0 0 Z " fill="#333233" transform="translate(638,924)"/>
<path d="M0 0 C0.516 0.495 1.031 0.99 1.562 1.5 C4.867 3.534 7.185 3.347 11 3 C11.99 2.34 12.98 1.68 14 1 C15.32 1 16.64 1 18 1 C17.004 3.625 16.06 4.95 13.875 6.75 C9.941 8.46 7.277 8.351 3 8 C0.844 5.844 -0.478 3.629 -2 1 C-1.34 0.67 -0.68 0.34 0 0 Z " fill="#3D3B3E" transform="translate(558,940)"/>
<path d="M0 0 C2.438 1.5 2.438 1.5 4 3 C3.34 4.32 2.68 5.64 2 7 C1.01 6.34 0.02 5.68 -1 5 C-5.458 4.604 -8.84 5.415 -13 7 C-11.558 2.434 -11.558 2.434 -9.312 0.688 C-6.062 -0.279 -3.373 -0.301 0 0 Z " fill="#3D3B3E" transform="translate(432,923)"/>
<path d="M0 0 C3.125 0.375 3.125 0.375 5.5 2.25 C7.125 4.375 7.125 4.375 7.125 6.375 C2.505 6.375 -2.115 6.375 -6.875 6.375 C-3.945 0.515 -3.945 0.515 0 0 Z " fill="#F2F3F3" transform="translate(564.875,926.625)"/>
<path d="M0 0 C0.701 0.144 1.403 0.289 2.125 0.438 C2.455 2.087 2.785 3.738 3.125 5.438 C2.011 5.664 0.898 5.891 -0.25 6.125 C-4.04 7.022 -4.04 7.022 -5.125 10 C-5.372 10.804 -5.62 11.609 -5.875 12.438 C-6.865 12.767 -7.855 13.098 -8.875 13.438 C-9.327 10.348 -9.33 8.206 -7.715 5.48 C-3.813 0.58 -3.813 0.58 0 0 Z " fill="#3D3B3E" transform="translate(684.875,417.5625)"/>
<path d="M0 0 C2 1.062 2 1.062 3 3 C2.768 6.304 2.489 9.021 1 12 C-0.32 12 -1.64 12 -3 12 C-2.01 9.03 -1.02 6.06 0 3 C-5.309 3.582 -5.309 3.582 -10 6 C-9.625 3.562 -9.625 3.562 -9 1 C-5.95 -0.525 -3.358 -0.236 0 0 Z " fill="#202320" transform="translate(715,426)"/>
<path d="M0 0 C0.33 0 0.66 0 1 0 C1.061 0.915 1.121 1.83 1.184 2.773 C1.267 3.962 1.351 5.15 1.438 6.375 C1.519 7.558 1.6 8.742 1.684 9.961 C1.811 12.915 1.811 12.915 3 15 C5.527 15.656 5.527 15.656 8 16 C7.67 17.32 7.34 18.64 7 20 C1.632 20.358 1.632 20.358 -0.875 18.938 C-2.582 15.998 -2.188 13.321 -2 10 C-1.67 10 -1.34 10 -1 10 C-0.67 6.7 -0.34 3.4 0 0 Z " fill="#333233" transform="translate(468,928)"/>
<path d="M0 0 C1.32 0 2.64 0 4 0 C4.054 2.271 4.093 4.542 4.125 6.812 C4.148 8.077 4.171 9.342 4.195 10.645 C4 14 4 14 2 17 C1.34 17 0.68 17 0 17 C0 11.39 0 5.78 0 0 Z " fill="#3D3B3E" transform="translate(331,924)"/>
<path d="M0 0 C0 0.66 0 1.32 0 2 C-1.176 2.309 -1.176 2.309 -2.375 2.625 C-5.309 3.807 -5.309 3.807 -6.312 7.125 C-6.653 8.548 -6.653 8.548 -7 10 C-5.68 10.33 -4.36 10.66 -3 11 C-2.34 10.01 -1.68 9.02 -1 8 C-0.34 8 0.32 8 1 8 C0.812 9.875 0.812 9.875 0 12 C-2.312 13.438 -2.312 13.438 -5 14 C-7.312 13.125 -7.312 13.125 -9 11 C-9.671 7.407 -9.686 4.219 -7.875 1 C-5.211 -0.421 -2.965 -0.198 0 0 Z " fill="#221D0F" transform="translate(663,452)"/>
<path d="M0 0 C3.53 1.177 3.787 1.884 5.562 5 C7.214 8.085 7.214 8.085 10 10 C10 10.99 10 11.98 10 13 C6.278 12.746 4.443 12.396 1.625 9.875 C-0.364 6.357 -0.312 3.98 0 0 Z " fill="#333233" transform="translate(303,934)"/>
<path d="M0 0 C2.062 0.438 2.062 0.438 4 1 C4.027 2.604 4.046 4.208 4.062 5.812 C4.074 6.706 4.086 7.599 4.098 8.52 C4 11 4 11 3 14 C2.01 13.67 1.02 13.34 0 13 C-0.982 8.947 -1.16 5.165 -1 1 C-0.67 0.67 -0.34 0.34 0 0 Z " fill="#3D3B3E" transform="translate(668,386)"/>
<path d="M0 0 C1.32 0.66 2.64 1.32 4 2 C2.595 5.395 1.302 7.306 -2 9 C-5.017 9.245 -7.98 9.174 -11 9 C-10.01 8.67 -9.02 8.34 -8 8 C-8 7.01 -8 6.02 -8 5 C-7.051 4.732 -6.103 4.464 -5.125 4.188 C-1.747 3.25 -1.747 3.25 0 0 Z " fill="#333233" transform="translate(321,939)"/>
<path d="M0 0 C0.66 0 1.32 0 2 0 C2 1.98 2 3.96 2 6 C-1.375 6.125 -1.375 6.125 -5 6 C-5.66 5.34 -6.32 4.68 -7 4 C-9.433 3.538 -9.433 3.538 -12.125 3.375 C-13.035 3.3 -13.945 3.225 -14.883 3.148 C-15.581 3.099 -16.28 3.05 -17 3 C-17 2.67 -17 2.34 -17 2 C-15.857 1.939 -14.713 1.879 -13.535 1.816 C-12.044 1.732 -10.553 1.647 -9.062 1.562 C-8.308 1.523 -7.553 1.484 -6.775 1.443 C-3.081 1.56 -3.081 1.56 0 0 Z " fill="#3D3B3E" transform="translate(575,931)"/>
<path d="M0 0 C4.841 0.33 7.522 1.625 11 5 C11 5.66 11 6.32 11 7 C9.372 6.772 7.747 6.517 6.125 6.25 C5.22 6.111 4.315 5.972 3.383 5.828 C1 5 1 5 -0.32 2.922 C-0.545 2.288 -0.769 1.653 -1 1 C-0.67 0.67 -0.34 0.34 0 0 Z " fill="#3D3B3E" transform="translate(654,395)"/>
<path d="M0 0 C5.478 -0.365 5.478 -0.365 7.875 1.312 C9 3 9 3 9 6 C5.37 5.67 1.74 5.34 -2 5 C-1.34 3.35 -0.68 1.7 0 0 Z " fill="#DFE0E0" transform="translate(425,927)"/>
<path d="M0 0 C1.049 3.148 0.986 3.935 0.223 7.012 C0.039 7.769 -0.145 8.526 -0.334 9.307 C-0.533 10.092 -0.732 10.878 -0.938 11.688 C-1.133 12.485 -1.328 13.282 -1.529 14.104 C-2.012 16.071 -2.505 18.036 -3 20 C-3.66 20 -4.32 20 -5 20 C-5.33 20.99 -5.66 21.98 -6 23 C-4.152 4.152 -4.152 4.152 0 0 Z " fill="#3D3B3E" transform="translate(673,629)"/>
<path d="M0 0 C0.33 0 0.66 0 1 0 C1.33 1.98 1.66 3.96 2 6 C3.279 6.021 4.558 6.041 5.875 6.062 C6.954 6.08 6.954 6.08 8.055 6.098 C10.082 6.126 10.082 6.126 12 5 C10.125 8.875 10.125 8.875 9 10 C2.792 10.46 2.792 10.46 0.062 8.875 C-1.462 6.186 -1.264 4.031 -1 1 C-0.67 0.67 -0.34 0.34 0 0 Z " fill="#333233" transform="translate(680,478)"/>
<path d="M0 0 C0 4.95 0 9.9 0 15 C-0.99 15.33 -1.98 15.66 -3 16 C-3 11.05 -3 6.1 -3 1 C-1 0 -1 0 0 0 Z " fill="#202320" transform="translate(657,927)"/>
<path d="M0 0 C-2.726 5.919 -7.34 10.519 -12 15 C-12.33 14.34 -12.66 13.68 -13 13 C-5.073 0 -5.073 0 0 0 Z " fill="#332D0E" transform="translate(682,458)"/>
<path d="M0 0 C0.99 0 1.98 0 3 0 C2.555 5.044 0.39 7.444 -3 11 C-3.66 11 -4.32 11 -5 11 C-4.551 6.171 -3.453 3.453 0 0 Z " fill="#333233" transform="translate(681,393)"/>
<path d="M0 0 C4.455 0.99 4.455 0.99 9 2 C9 3.32 9 4.64 9 6 C2.477 6.369 2.477 6.369 0.062 4.5 C-0.463 3.758 -0.463 3.758 -1 3 C-0.67 2.01 -0.34 1.02 0 0 Z " fill="#333233" transform="translate(655,942)"/>
<path d="M0 0 C2.867 0.573 3.861 0.861 6 3 C5.67 6.297 5.377 7.623 3 10 C-0.125 10.125 -0.125 10.125 -3 10 C-3 9.34 -3 8.68 -3 8 C-1.68 7.67 -0.36 7.34 1 7 C1.151 3.371 1.151 3.371 0 0 Z " fill="#292838" transform="translate(716,464)"/>
<path d="M0 0 C1 3 1 3 0.145 5.043 C-0.295 5.751 -0.735 6.458 -1.188 7.188 C-1.614 7.903 -2.041 8.618 -2.48 9.355 C-3.233 10.17 -3.233 10.17 -4 11 C-5.32 11 -6.64 11 -8 11 C-6.533 5.5 -6.533 5.5 -4 3.125 C-2 2 -2 2 0 2 C0 1.34 0 0.68 0 0 Z " fill="#333233" transform="translate(683,944)"/>
<path d="M0 0 C7.59 0 15.18 0 23 0 C22.67 0.66 22.34 1.32 22 2 C19.094 2.449 19.094 2.449 15.5 2.688 C14.314 2.774 13.128 2.86 11.906 2.949 C10.947 2.966 9.988 2.983 9 3 C8.67 2.67 8.34 2.34 8 2 C6.653 1.769 5.296 1.588 3.938 1.438 C2.638 1.293 1.339 1.149 0 1 C0 0.67 0 0.34 0 0 Z " fill="#202320" transform="translate(394,621)"/>
<path d="M0 0 C-0.33 0.33 -0.66 0.66 -1 1 C-0.01 1.66 0.98 2.32 2 3 C-0.916 3.826 -3.595 4.189 -6.625 4.25 C-7.401 4.276 -8.177 4.302 -8.977 4.328 C-9.644 4.22 -10.312 4.112 -11 4 C-11.66 3.01 -12.32 2.02 -13 1 C-11.21 0.638 -9.418 0.285 -7.625 -0.062 C-6.128 -0.358 -6.128 -0.358 -4.602 -0.66 C-2 -1 -2 -1 0 0 Z " fill="#333233" transform="translate(718,452)"/>
<path d="M0 0 C2.95 1.142 4.884 2.673 7 5 C6.34 6.32 5.68 7.64 5 9 C-0.875 4.375 -0.875 4.375 -2 1 C-1.34 0.67 -0.68 0.34 0 0 Z " fill="#333233" transform="translate(569,924)"/>
<path d="M0 0 C0.66 0 1.32 0 2 0 C0.187 16.623 0.187 16.623 -4 21 C-3.354 16.127 -2.49 11.369 -1.438 6.562 C-1.033 4.708 -1.033 4.708 -0.621 2.816 C-0.314 1.422 -0.314 1.422 0 0 Z " fill="#3D3B3E" transform="translate(683,579)"/>
<path d="M0 0 C0.66 0 1.32 0 2 0 C2.194 5.527 1.748 9.756 0 15 C-0.66 15 -1.32 15 -2 15 C-1.036 4.442 -1.036 4.442 0 0 Z " fill="#4B4848" transform="translate(648,531)"/>
<path d="M0 0 C-0.33 0.99 -0.66 1.98 -1 3 C-3.066 3.73 -3.066 3.73 -5.562 4.188 C-6.389 4.346 -7.215 4.505 -8.066 4.668 C-9.024 4.832 -9.024 4.832 -10 5 C-9.625 3.062 -9.625 3.062 -9 1 C-6.043 -0.478 -3.258 -0.06 0 0 Z " fill="#3D3B3E" transform="translate(666,406)"/>
<path d="M0 0 C0.33 0 0.66 0 1 0 C2.429 5.536 2.816 11.552 1 17 C0.34 17 -0.32 17 -1 17 C-0.67 11.39 -0.34 5.78 0 0 Z " fill="#4B4848" transform="translate(584,659)"/>
<path d="M0 0 C0.33 0 0.66 0 1 0 C1 4.95 1 9.9 1 15 C0.01 15 -0.98 15 -2 15 C-1.858 13.25 -1.711 11.5 -1.562 9.75 C-1.481 8.775 -1.4 7.801 -1.316 6.797 C-1.049 4.435 -0.646 2.281 0 0 Z " fill="#202320" transform="translate(584,932)"/>
<path d="M0 0 C0.66 1.32 1.32 2.64 2 4 C1.34 4.66 0.68 5.32 0 6 C-0.4 8.323 -0.74 10.657 -1 13 C-1.33 13 -1.66 13 -2 13 C-3.471 8.588 -4.369 5.517 -3 1 C-2.01 0.67 -1.02 0.34 0 0 Z " fill="#4B4848" transform="translate(626,925)"/>
<path d="M0 0 C0 1.32 0 2.64 0 4 C-2.64 4.33 -5.28 4.66 -8 5 C-8 3.68 -8 2.36 -8 1 C-5.291 -0.354 -2.991 -0.065 0 0 Z " fill="#333233" transform="translate(635,923)"/>
<path d="M0 0 C0.784 0.041 1.567 0.082 2.375 0.125 C2.375 1.775 2.375 3.425 2.375 5.125 C0.395 5.455 -1.585 5.785 -3.625 6.125 C-4.25 4.25 -4.25 4.25 -4.625 2.125 C-2.625 0.125 -2.625 0.125 0 0 Z " fill="#3D3B3E" transform="translate(455.625,922.875)"/>
<path d="M0 0 C0.33 0 0.66 0 1 0 C1.33 6.27 1.66 12.54 2 19 C1.01 18.34 0.02 17.68 -1 17 C-1.328 15.117 -1.328 15.117 -1.25 12.875 C-1.224 12.08 -1.198 11.284 -1.172 10.465 C-0.927 6.947 -0.508 3.49 0 0 Z " fill="#5F5D60" transform="translate(497,567)"/>
<path d="M0 0 C0.33 0.99 0.66 1.98 1 3 C1.66 3.33 2.32 3.66 3 4 C-1.554 6.666 -4.739 7.316 -10 7 C-10 6.67 -10 6.34 -10 6 C-8.02 5.67 -6.04 5.34 -4 5 C-4.66 4.34 -5.32 3.68 -6 3 C-5.196 2.691 -4.391 2.381 -3.562 2.062 C-1.109 1.237 -1.109 1.237 0 0 Z " fill="#4B4848" transform="translate(346,941)"/>
<path d="M0 0 C2.169 0.506 4 1 6 2 C6.625 4.062 6.625 4.062 7 6 C4.03 5.505 4.03 5.505 1 5 C0.67 3.35 0.34 1.7 0 0 Z " fill="#333233" transform="translate(511,941)"/>
<path d="M0 0 C4.75 0.75 4.75 0.75 7 3 C7 3.99 7 4.98 7 6 C4.625 5.812 4.625 5.812 2 5 C0.688 2.438 0.688 2.438 0 0 Z " fill="#333233" transform="translate(522,924)"/>
<path d="M0 0 C1.65 0.33 3.3 0.66 5 1 C5.33 2.32 5.66 3.64 6 5 C2 5 2 5 0.25 3.5 C-0.163 3.005 -0.575 2.51 -1 2 C-0.67 1.34 -0.34 0.68 0 0 Z " fill="#333233" transform="translate(407,925)"/>
<path d="M0 0 C0.66 0.33 1.32 0.66 2 1 C0.9 2.295 -0.205 3.586 -1.312 4.875 C-1.927 5.594 -2.542 6.314 -3.176 7.055 C-5 9 -5 9 -8 11 C-6.527 5.991 -3.725 3.482 0 0 Z " fill="#4064C1" transform="translate(681,460)"/>
<path d="M0 0 C1.32 0 2.64 0 4 0 C3.188 3.438 3.188 3.438 2 7 C1.01 7.33 0.02 7.66 -1 8 C-1.125 2.25 -1.125 2.25 0 0 Z " fill="#333233" transform="translate(677,423)"/>
<path d="M0 0 C0 1.65 0 3.3 0 5 C-1.65 4.67 -3.3 4.34 -5 4 C-5.33 3.01 -5.66 2.02 -6 1 C-4 0 -4 0 0 0 Z " fill="#4B4848" transform="translate(370,923)"/>
<path d="M0 0 C1.454 0.031 1.454 0.031 2.938 0.062 C2.938 0.723 2.938 1.382 2.938 2.062 C-0.037 3.302 -2.915 4.363 -6.062 5.062 C-3.649 0.074 -3.649 0.074 0 0 Z " fill="#332D0E" transform="translate(660.0625,451.9375)"/>
<path d="M0 0 C0.33 0.66 0.66 1.32 1 2 C0.01 2.495 0.01 2.495 -1 3 C-0.34 3.66 0.32 4.32 1 5 C-1.97 5 -4.94 5 -8 5 C-7.01 4.67 -6.02 4.34 -5 4 C-5 3.01 -5 2.02 -5 1 C-3.35 0.67 -1.7 0.34 0 0 Z " fill="#565455" transform="translate(318,943)"/>
<path d="M0 0 C0.66 1.32 1.32 2.64 2 4 C-0.245 10.622 -0.245 10.622 -3 12 C-2.01 8.04 -1.02 4.08 0 0 Z " fill="#4B4848" transform="translate(715,600)"/>
<path d="M0 0 C-0.33 0.66 -0.66 1.32 -1 2 C-5.161 2.082 -8.947 1.982 -13 1 C-13 0.67 -13 0.34 -13 0 C-11.585 -0.197 -10.168 -0.382 -8.75 -0.562 C-7.961 -0.667 -7.172 -0.771 -6.359 -0.879 C-3.995 -1 -2.249 -0.696 0 0 Z " fill="#202320" transform="translate(662,480)"/>
<path d="M0 0 C0.33 0.99 0.66 1.98 1 3 C-1.808 5.964 -4.183 8.445 -8 10 C-6.76 6.279 -5.043 5.375 -2 3 C-1.34 2.01 -0.68 1.02 0 0 Z " fill="#333233" transform="translate(701,678)"/>
<path d="M0 0 C0.99 1.32 1.98 2.64 3 4 C2.34 5.32 1.68 6.64 1 8 C-0.32 8 -1.64 8 -3 8 C-2.536 7.134 -2.536 7.134 -2.062 6.25 C-1.074 4.157 -0.483 2.255 0 0 Z " fill="#202320" transform="translate(715,430)"/>
<path d="M0 0 C2.475 0.495 2.475 0.495 5 1 C4.67 2.32 4.34 3.64 4 5 C2.68 4.67 1.36 4.34 0 4 C0 2.68 0 1.36 0 0 Z " fill="#333233" transform="translate(669,430)"/>
<path d="M0 0 C2.074 2.282 2.984 3.443 3.074 6.578 C2.947 7.46 2.819 8.342 2.688 9.25 C2.508 10.588 2.508 10.588 2.324 11.953 C2.217 12.629 2.11 13.304 2 14 C1.67 14 1.34 14 1 14 C0.047 9.237 -0.083 4.833 0 0 Z " fill="#5F5D60" transform="translate(495,633)"/>
<path d="M0 0 C0.66 0 1.32 0 2 0 C1.143 8.571 1.143 8.571 -1 12 C-1.143 3.429 -1.143 3.429 0 0 Z " fill="#3D3B3E" transform="translate(677,605)"/>
<path d="M0 0 C1.392 4.176 -0.177 6.135 -2 10 C-3.103 6.69 -2.994 4.345 -2 1 C-1.34 0.67 -0.68 0.34 0 0 Z " fill="#3D3B3E" transform="translate(688,564)"/>
<path d="M0 0 C0.33 0 0.66 0 1 0 C1 3.63 1 7.26 1 11 C1.66 11 2.32 11 3 11 C3 11.99 3 12.98 3 14 C2.01 14 1.02 14 0 14 C0 9.38 0 4.76 0 0 Z " fill="#202320" transform="translate(287,933)"/>
<path d="M0 0 C2.97 0.33 5.94 0.66 9 1 C5.375 4 5.375 4 2 4 C2 3.34 2 2.68 2 2 C1.34 1.34 0.68 0.68 0 0 Z " fill="#3D3B3E" transform="translate(311,923)"/>
<path d="M0 0 C1.32 0 2.64 0 4 0 C4 1.65 4 3.3 4 5 C2.68 5 1.36 5 0 5 C0 3.35 0 1.7 0 0 Z " fill="#333233" transform="translate(501,915)"/>
<path d="M0 0 C0.33 0 0.66 0 1 0 C1.185 9.41 1.185 9.41 0 14 C-0.66 13.34 -1.32 12.68 -2 12 C-1.688 9.812 -1.688 9.812 -1 7 C-0.656 4.668 -0.321 2.335 0 0 Z " fill="#565455" transform="translate(602,564)"/>
<path d="M0 0 C0.33 0.99 0.66 1.98 1 3 C-0.29 4.376 -1.627 5.708 -3 7 C-3.66 7 -4.32 7 -5 7 C-5 5.68 -5 4.36 -5 3 C-2.5 1.25 -2.5 1.25 0 0 Z " fill="#372B25" transform="translate(666,475)"/>
<path d="M0 0 C1.875 0.25 1.875 0.25 4 1 C5.25 3.062 5.25 3.062 6 5 C3.69 4.67 1.38 4.34 -1 4 C-0.34 3.67 0.32 3.34 1 3 C0.67 2.01 0.34 1.02 0 0 Z " fill="#565455" transform="translate(659,397)"/>
<path d="M0 0 C0.33 0 0.66 0 1 0 C1.027 1.604 1.046 3.208 1.062 4.812 C1.074 5.706 1.086 6.599 1.098 7.52 C1 10 1 10 0 13 C-0.99 12.67 -1.98 12.34 -3 12 C-2.67 11.01 -2.34 10.02 -2 9 C-1.67 9 -1.34 9 -1 9 C-0.67 6.03 -0.34 3.06 0 0 Z " fill="#6A686A" transform="translate(671,387)"/>
<path d="M0 0 C0.99 0.33 1.98 0.66 3 1 C2.688 2.938 2.688 2.938 2 5 C1.01 5.33 0.02 5.66 -1 6 C-1.33 5.01 -1.66 4.02 -2 3 C-1.34 2.01 -0.68 1.02 0 0 Z " fill="#333233" transform="translate(410,940)"/>
<path d="M0 0 C0.33 0 0.66 0 1 0 C1 2.64 1 5.28 1 8 C0.01 8 -0.98 8 -2 8 C-2.125 5.125 -2.125 5.125 -2 2 C-1.34 1.34 -0.68 0.68 0 0 Z " fill="#202320" transform="translate(360,939)"/>
<path d="M0 0 C2.6 3.9 2.151 7.474 2 12 C1.67 12 1.34 12 1 12 C1 10.02 1 8.04 1 6 C0.34 6 -0.32 6 -1 6 C-1.043 4.334 -1.041 2.666 -1 1 C-0.67 0.67 -0.34 0.34 0 0 Z " fill="#565455" transform="translate(504,647)"/>
<path d="M0 0 C0.66 0 1.32 0 2 0 C2.977 6.055 2.977 6.055 3 8 C2.34 8.66 1.68 9.32 1 10 C0.67 6.7 0.34 3.4 0 0 Z " fill="#4B4848" transform="translate(440,571)"/>
<path d="M0 0 C2.64 0 5.28 0 8 0 C7.67 1.32 7.34 2.64 7 4 C5.68 4 4.36 4 3 4 C3 3.34 3 2.68 3 2 C2.01 1.34 1.02 0.68 0 0 Z " fill="#3D3B3E" transform="translate(516,923)"/>
<path d="M0 0 C0.33 0 0.66 0 1 0 C1.33 4.62 1.66 9.24 2 14 C1.67 14 1.34 14 1 14 C1 12.35 1 10.7 1 9 C0.34 9 -0.32 9 -1 9 C-0.67 6.03 -0.34 3.06 0 0 Z " fill="#6A686A" transform="translate(494,540)"/>
<path d="M0 0 C0.103 0.557 0.206 1.114 0.312 1.688 C1.131 4.442 2.459 6.587 4 9 C1.007 7.902 0.154 7.323 -1.25 4.375 C-1.497 3.591 -1.745 2.808 -2 2 C-1.34 2 -0.68 2 0 2 C0 1.34 0 0.68 0 0 Z " fill="#333233" transform="translate(556,937)"/>
<path d="M0 0 C0.33 0.99 0.66 1.98 1 3 C-0.438 5.688 -0.438 5.688 -2 8 C-2.66 6.68 -3.32 5.36 -4 4 C-2.68 2.68 -1.36 1.36 0 0 Z " fill="#333233" transform="translate(688,933)"/>
<path d="M0 0 C1.333 0 2.667 0 4 0 C4 2.31 4 4.62 4 7 C2 5.75 2 5.75 0 4 C0 2.68 0 1.36 0 0 Z " fill="#3D3B3E" transform="translate(303,930)"/>
<path d="M0 0 C0 0.99 0 1.98 0 3 C-2.31 3 -4.62 3 -7 3 C-7 2.34 -7 1.68 -7 1 C-4.509 0.313 -2.621 0 0 0 Z " fill="#A4A0A7" transform="translate(666,481)"/>
<path d="M0 0 C0.66 0.33 1.32 0.66 2 1 C1.688 2.938 1.688 2.938 1 5 C0.01 5.33 -0.98 5.66 -2 6 C-2 5.34 -2 4.68 -2 4 C-2.99 3.67 -3.98 3.34 -5 3 C-2.625 1.438 -2.625 1.438 0 0 Z " fill="#333233" transform="translate(727,446)"/>
<path d="M0 0 C0.33 0 0.66 0 1 0 C1 2.97 1 5.94 1 9 C-0.65 8.67 -2.3 8.34 -4 8 C-3.288 7.134 -3.288 7.134 -2.562 6.25 C-1.052 4.074 -0.46 2.574 0 0 Z " fill="#908F90" transform="translate(675,428)"/>
</svg>